<?xml version="1.0" encoding="UTF-8" standalone="no"?>
<svg width="300px" height="300px" viewBox="0 0 300 300" version="1.1" xmlns="http://www.w3.org/2000/svg" xmlns:xlink="http://www.w3.org/1999/xlink" xmlns:sketch="http://www.bohemiancoding.com/sketch/ns">
    <!-- Generator: Sketch 3.5.2 (25235) - http://www.bohemiancoding.com/sketch -->
    <title>angularjs</title>
    <desc>Created with Sketch.</desc>
    <defs></defs>
    <g id="Page-1" stroke="none" stroke-width="1" fill="none" fill-rule="evenodd" sketch:type="MSPage">
        <g id="angularjs" sketch:type="MSArtboardGroup">
            <path d="M149.562946,0.484666405 L8.94213174,49.9716569 L31.1638563,234.206111 L149.712599,299.362281 L268.871856,233.323508 L291.085077,49.0958563 L149.562946,0.484666405 L149.562946,0.484666405 Z" id="Shape" fill="#B3B3B3" sketch:type="MSShapeGroup"></path>
            <path d="M277.058539,59.7432118 L149.23473,16.1538462 L149.23473,283.795137 L256.35715,224.509382 L277.058539,59.7432118 L277.058539,59.7432118 Z" id="Shape" fill="#A6120D" sketch:type="MSShapeGroup"></path>
            <path d="M24.721988,60.5288815 L43.7635928,225.296752 L149.23303,283.795137 L149.23303,16.1487444 L24.721988,60.5288815 L24.721988,60.5288815 Z" id="Shape" fill="#DD1B16" sketch:type="MSShapeGroup"></path>
            <path d="M184.42012,158.632164 L149.23473,175.085313 L112.149773,175.085313 L94.7169341,218.688283 L62.2916168,219.288589 L149.23473,25.872683 L184.42012,158.632164 L184.42012,158.632164 L184.42012,158.632164 Z M181.018923,150.34862 L149.467713,87.8878749 L123.588,149.273851 L149.23303,149.273851 L181.018923,150.34862 L181.018923,150.34862 L181.018923,150.34862 Z" id="Shape" fill="#F2F2F2" sketch:type="MSShapeGroup"></path>
            <path d="M149.23303,25.872683 L149.466012,87.8878749 L178.831952,149.321467 L149.299353,149.321467 L149.23303,175.046199 L190.069509,175.085313 L209.155329,219.295392 L240.181054,219.870189 L149.23303,25.872683 L149.23303,25.872683 Z" id="Shape" fill="#B3B3B3" sketch:type="MSShapeGroup"></path>
        </g>
    </g>
</svg>