<?xml version="1.0" encoding="UTF-8" standalone="no"?>
<svg width="300px" height="300px" viewBox="0 0 300 300" version="1.1" xmlns="http://www.w3.org/2000/svg" xmlns:xlink="http://www.w3.org/1999/xlink" xmlns:sketch="http://www.bohemiancoding.com/sketch/ns">
    <!-- Generator: Sketch 3.5.2 (25235) - http://www.bohemiancoding.com/sketch -->
    <title>javascript</title>
    <desc>Created with Sketch.</desc>
    <defs></defs>
    <g id="Page-1" stroke="none" stroke-width="1" fill="none" fill-rule="evenodd" sketch:type="MSPage">
        <g id="javascript" sketch:type="MSArtboardGroup">
            <rect id="Rectangle-path" fill="#F7DF1E" sketch:type="MSShapeGroup" x="0" y="0" width="300" height="300"></rect>
            <path d="M201.52381,234.37619 C207.566667,244.242857 215.428571,251.495238 229.333333,251.495238 C241.014286,251.495238 248.47619,245.657143 248.47619,237.590476 C248.47619,227.92381 240.809524,224.5 227.952381,218.87619 L220.904762,215.852381 C200.561905,207.185714 187.047619,196.328571 187.047619,173.37619 C187.047619,152.233333 203.157143,136.138095 228.333333,136.138095 C246.257143,136.138095 259.142857,142.37619 268.428571,158.709524 L246.47619,172.804762 C241.642857,164.138095 236.428571,160.72381 228.333333,160.72381 C220.07619,160.72381 214.842857,165.961905 214.842857,172.804762 C214.842857,181.261905 220.080952,184.685714 232.17619,189.92381 L239.22381,192.942857 C263.17619,203.214286 276.7,213.685714 276.7,237.228571 C276.7,262.609524 256.761905,276.514286 229.985714,276.514286 C203.804762,276.514286 186.890476,264.038095 178.614286,247.685714 L201.52381,234.37619 L201.52381,234.37619 Z M101.938095,236.819048 C106.366667,244.67619 110.395238,251.319048 120.080952,251.319048 C129.342857,251.319048 135.185714,247.695238 135.185714,233.604762 L135.185714,137.747619 L163.37619,137.747619 L163.37619,233.985714 C163.37619,263.17619 146.261905,276.461905 121.280952,276.461905 C98.7095238,276.461905 85.6380952,264.780952 78.9904762,250.711905 L101.938095,236.819048 L101.938095,236.819048 Z" id="Shape" fill="#000000" sketch:type="MSShapeGroup"></path>
        </g>
    </g>
</svg>