<?xml version="1.0" encoding="UTF-8" standalone="no"?>
<svg width="300px" height="300px" viewBox="0 0 300 300" version="1.1" xmlns="http://www.w3.org/2000/svg" xmlns:xlink="http://www.w3.org/1999/xlink" xmlns:sketch="http://www.bohemiancoding.com/sketch/ns">
    <!-- Generator: Sketch 3.5.2 (25235) - http://www.bohemiancoding.com/sketch -->
    <title>karma</title>
    <desc>Created with Sketch.</desc>
    <defs></defs>
    <g id="Page-1" stroke="none" stroke-width="1" fill="none" fill-rule="evenodd" sketch:type="MSPage">
        <g id="karma" sketch:type="MSArtboardGroup">
            <path d="M178.858625,209.352296 L226.713454,137.722756 L299.289526,137.722756 L214.352116,263.635545 L178.858625,209.352296 L178.858625,209.352296 Z M34.4991626,169.594369 L68.1131392,201.365974 L121.855201,137.722756 L87.3560383,265.387499 L55.5218993,217.771463 L34.4991626,169.594369 L34.4991626,169.594369 Z" id="path30" fill="#429F87" sketch:type="MSShapeGroup" transform="translate(166.894344, 201.555127) scale(1, -1) translate(-166.894344, -201.555127) "></path>
            <path d="M34.4991626,66.5795895 L87.3560383,162.372719 L53.7498063,130.586581 L0,194.231526 L34.4991626,66.5795895 L34.4991626,66.5795895 Z M292.369528,265.387499 L219.793457,265.387499 L175.34341,199.493865 L175.34341,265.387499 L108.770311,265.387499 L108.770311,197.046165 L144.265809,65.7916057 L152.538254,34.707976 L175.34341,34.707976 L175.34341,92.3794397 L292.369528,265.387499 L292.369528,265.387499 Z" id="path34" fill="#56C5A8" sketch:type="MSShapeGroup" transform="translate(146.184764, 150.047738) scale(1, -1) translate(-146.184764, -150.047738) "></path>
        </g>
    </g>
</svg>