<?xml version="1.0" encoding="UTF-8" standalone="no"?>
<svg width="300px" height="300px" viewBox="0 0 300 300" version="1.1" xmlns="http://www.w3.org/2000/svg" xmlns:xlink="http://www.w3.org/1999/xlink" xmlns:sketch="http://www.bohemiancoding.com/sketch/ns">
    <!-- Generator: Sketch 3.5.2 (25235) - http://www.bohemiancoding.com/sketch -->
    <title>protractor</title>
    <desc>Created with Sketch.</desc>
    <defs></defs>
    <g id="Page-1" stroke="none" stroke-width="1" fill="none" fill-rule="evenodd" sketch:type="MSPage">
        <g id="protractor" sketch:type="MSLayerGroup">
            <ellipse id="Oval-1" fill="#FF2E34" sketch:type="MSShapeGroup" cx="149.358974" cy="150" rx="149.358974" ry="150"></ellipse>
            <path d="M299.296857,145.548994 C299.338175,146.999997 299.358974,148.456161 299.358974,149.917204 C299.358974,232.759917 232.488684,299.917204 150,299.917204 C149.785768,299.917204 149.571642,299.916751 149.357622,299.915846 L38.4615385,188.543814 L69.6561233,127.348701 L121.328397,69.527897 L230.181816,76.137322 L299.296857,145.548994 L299.296857,145.548994 Z" id="shade" fill="#D32A2D" sketch:type="MSShapeGroup"></path>
            <path d="M57.6923075,162.23176 L37.1794872,162.23176 L37.1794872,189.270386 L264.102564,189.270386 L264.102564,162.23176 L243.589744,162.23176 L243.589744,155.793991 L264.058166,155.793991 C263.285543,127.819299 252.473467,102.364739 235.111042,82.934391 L222.10595,95.9952994 L216.666667,90.5326719 L229.782256,77.3607926 C210.339365,58.350481 184.130846,46.2846408 155.128239,45.1518573 L155.128205,65.6652361 L147.435897,65.6652361 L147.435897,45.1089664 C118.104176,45.926037 91.5549084,57.9229147 71.861993,77.0082153 L85.3286528,90.5326719 L79.8893699,95.9952994 L66.5091513,82.557655 C48.9490436,102.035156 38.0015116,127.638134 37.2238854,155.793991 L57.6923077,155.793991 L57.6923075,162.23176 L57.6923075,162.23176 Z M76.9230769,162.276348 L224.309804,162.276348 C223.290221,122.254059 190.686902,88.8857904 150.616441,88.8857904 C110.54598,88.8857904 77.9426597,122.254059 76.9230769,162.276348 L76.9230769,162.276348 Z" id="Oval-2" fill="#F2F2F2" sketch:type="MSShapeGroup"></path>
        </g>
    </g>
</svg>