<?xml version="1.0" encoding="UTF-8" standalone="no"?>
<svg width="300px" height="300px" viewBox="0 0 300 300" version="1.1" xmlns="http://www.w3.org/2000/svg" xmlns:xlink="http://www.w3.org/1999/xlink" xmlns:sketch="http://www.bohemiancoding.com/sketch/ns">
    <!-- Generator: Sketch 3.5.2 (25235) - http://www.bohemiancoding.com/sketch -->
    <title>react</title>
    <desc>Created with Sketch.</desc>
    <defs></defs>
    <g id="Page-1" stroke="none" stroke-width="1" fill="none" fill-rule="evenodd" sketch:type="MSPage">
        <g id="react" sketch:type="MSArtboardGroup" fill="#00D8FF">
            <path d="M176.155789,149.804211 C176.155789,164.386316 164.334211,176.207895 149.752105,176.207895 C135.17,176.207895 123.348421,164.386316 123.348421,149.804211 C123.348421,135.222105 135.17,123.400526 149.752105,123.400526 C164.334211,123.400526 176.155789,135.222105 176.155789,149.804211 L176.155789,149.804211 L176.155789,149.804211 L176.155789,149.804211 Z" id="Shape" sketch:type="MSShapeGroup"></path>
            <path d="M150,90 C114.341144,90 79.7231879,95.0869013 53.2451178,104.015294 L53.1889714,104.034226 L53.13319,104.054209 C21.9667959,115.218983 2.10526316,132.329963 2.10526316,150 C2.10526316,168.31105 23.5431335,186.685862 56.3502607,198.071922 L56.4160306,198.094343 C80.8453949,206.272797 113.780295,210.526316 150,210.526316 C184.560528,210.526316 217.096489,206.176823 241.949269,198.112721 L242.013299,198.091566 C275.90199,186.694202 297.894737,168.535216 297.894737,150 C297.894737,132.169794 277.207135,114.952675 245.198794,104.023051 C219.310696,95.0300895 185.518898,90 150,90 L150,90 L150,90 L150,90 Z M150,102.631579 C184.179956,102.631579 216.584957,107.455236 241.085431,115.966078 C268.540347,125.340976 285.263158,139.258424 285.263158,150 C285.263158,161.411469 267.265098,176.272119 237.986701,186.11896 L238.050731,186.097805 C214.567187,193.717625 183.320706,197.894737 150,197.894737 C115.038263,197.894737 83.4062868,193.809489 60.4260747,186.116183 L60.4918446,186.138604 C45.9578162,181.094416 33.9914927,174.624198 25.8032409,167.605889 C18.443214,161.297468 14.7368421,155.059939 14.7368421,150 C14.7368421,139.270717 30.7201442,125.500885 57.3931258,115.945791 L57.281198,115.984706 C82.3849905,107.51972 115.65032,102.631579 150,102.631579 L150,102.631579 L150,102.631579 L150,102.631579 Z" id="Shape" sketch:type="MSShapeGroup"></path>
            <path d="M97.1752034,119.977146 L97.1408218,120.036872 C79.3165475,151.394786 66.6362098,183.930478 61.6823687,210.966984 L61.6956154,210.896921 C55.3585098,243.407995 60.2238029,269.293459 75.8369523,278.128351 L75.7392903,278.071931 C91.3641573,287.285635 117.977623,277.906269 144.129747,255.30485 L144.20015,255.243088 C163.61561,237.95418 183.736265,211.48139 201.794939,179.98346 C219.013734,150.196572 231.466565,119.819877 236.711455,94.4358801 C243.924331,59.2360244 239.225788,31.0190393 223.117724,21.87579 L223.202087,21.9245405 C207.824264,12.8793152 182.664495,22.0387482 156.935315,44.1581197 L156.862545,44.2216549 C136.250874,62.4971366 115.071364,89.2774018 97.1752034,119.977146 L97.1752034,119.977146 L97.1752034,119.977146 Z M108.087954,126.338644 C125.342072,96.7402847 145.69495,71.0052473 165.242719,53.6730819 L165.169948,53.7366172 C187.217027,34.7827471 207.55822,27.3775203 216.797913,32.8123017 L216.882276,32.8610521 C221.279824,35.3571851 224.749549,41.7463623 226.373835,51.5009724 C228.175991,62.3237753 227.53503,76.2933909 224.339088,91.8900585 C219.394418,115.821021 207.445031,144.969645 190.847848,173.681281 C173.403917,204.106894 154.079571,229.531979 135.79985,245.809544 L135.870253,245.747782 C124.306457,255.741548 112.762413,262.838049 102.641721,266.404878 C93.5609349,269.605213 86.3948143,269.691106 82.1554465,267.191227 L82.0577846,267.134806 C72.5746377,261.768652 68.6838922,241.068202 74.0938583,213.313605 L74.107105,213.243542 C78.7862083,187.706469 90.9577626,156.476232 108.122336,126.278917 L108.087954,126.338644 L108.087954,126.338644 L108.087954,126.338644 Z" id="Shape" sketch:type="MSShapeGroup"></path>
            <path d="M97.1370129,180.482733 L97.1947098,180.582398 C115.442454,211.450878 137.212121,238.72728 157.947754,256.859662 L158.018239,256.920389 C183.299831,278.379116 208.081858,287.030771 223.218512,278.065765 L223.1122,278.127342 C239.15282,269.043687 244.374694,241.336653 237.779934,207.222319 L237.767384,207.15913 C232.62889,181.960082 219.86802,151.390582 201.788499,120.005332 C184.200192,89.7795122 164.137549,63.9467709 144.699113,46.8379601 C118.123404,23.0856841 91.3508178,13.0735509 75.2470568,22.4344304 C59.9004582,31.2799385 55.3075377,57.7182132 61.6943022,90.6752696 C67.0450804,117.713629 79.5268779,149.413258 97.1370129,180.482733 L97.1370129,180.482733 L97.1370129,180.482733 Z M108.126145,174.254109 C91.1468677,144.297652 79.156009,113.844846 74.0903701,88.2475828 C68.628849,60.0647185 72.3424352,38.6881648 81.5749873,33.3666554 C91.5058627,27.5940328 113.354392,35.7647184 136.317562,56.288044 C154.670228,72.4414529 173.918751,97.225932 190.856939,126.334395 C208.298331,156.612 220.556557,185.977385 225.390511,209.682975 L225.377961,209.619787 C231.054139,238.982346 226.806749,261.518807 216.8878,267.135816 L216.834345,267.166088 L216.781488,267.197393 C207.700082,272.57605 187.796423,265.627482 166.192287,247.290138 L166.262773,247.350864 C146.607792,230.163463 125.668996,203.928105 108.068448,174.154444 L108.126145,174.254109 L108.126145,174.254109 L108.126145,174.254109 Z" id="Shape" sketch:type="MSShapeGroup"></path>
        </g>
    </g>
</svg>